<svg class="border shadow-md" viewBox="0 0 1056 594" xmlns="http://www.w3.org/2000/svg" preserveAspectRatio="none" style="width: 1056px; height: 594px;"><rect class="bg" id="bg" x="0" y="0" width="1056" height="594" fill="#ffffff"/><path opacity="0.27" stroke-linecap="round" d="M 535 223 S 3.5 375.5 7 751 267.5 111.5 535 223 3.5 375.5 7 751" stroke="#11FF98" stroke-width="1" fill="none"/><path opacity="0.27" stroke-linecap="round" d="M 482 506 S 505 -11 1010 -22 241 253 482 506 505 -11 1010 -22" stroke="#FFFFFF" stroke-width="1" fill="none"/><path opacity="0.27" stroke-linecap="round" d="M 331 205 S -98.5 366.5 -197 733 -362.5 630.5 -725 1261 -626.5 894.5 -1253 1789" stroke="#FFFFFF" stroke-width="1" fill="none"/><path opacity="0.27" stroke-linecap="round" d="M 570 36 S 549 -246 1098 -492 813 -510 1626 -1020 1077 -774 2154 -1548" stroke="#11FF98" stroke-width="1" fill="none"/><path opacity="0.27" stroke-linecap="round" d="M 78 14 S -225 271 -450 542 39 7 78 14 303 -257 606 -514" stroke="#FFFFFF" stroke-width="1" fill="none"/><path opacity="0.27" stroke-linecap="round" d="M 439 23 S -44.5 275.5 -89 551 219.5 11.5 439 23 483.5 -252.5 967 -505" stroke="#FFFFFF" stroke-width="1" fill="none"/><path opacity="0.27" stroke-linecap="round" d="M 940 6 S 206 267 412 534 470 3 940 6 734 -261 1468 -522" stroke="#11FF98" stroke-width="1" fill="none"/><path opacity="0.27" stroke-linecap="round" d="M 536 296 S 532 -116 1064 -232 796 -380 1592 -760 1060 -644 2120 -1288" stroke="#FFFFFF" stroke-width="1" fill="none"/><path opacity="0.27" stroke-linecap="round" d="M 340 555 S 434 13.5 868 27 170 277.5 340 555 434 13.5 868 27" stroke="#FFFFFF" stroke-width="1" fill="none"/><path opacity="0.27" stroke-linecap="round" d="M 19 253 S 273.5 -137.5 547 -275 537.5 -401.5 1075 -803 801.5 -665.5 1603 -1331" stroke="#11FF98" stroke-width="1" fill="none"/><path opacity="0.27" stroke-linecap="round" d="M 824 323 S 676 -102.5 1352 -205 412 161.5 824 323 676 -102.5 1352 -205" stroke="#FFFFFF" stroke-width="1" fill="none"/><path opacity="0.27" stroke-linecap="round" d="M 658 251 S 65 389.5 130 779 -199 653.5 -398 1307 65 389.5 130 779" stroke="#FFFFFF" stroke-width="1" fill="none"/><path opacity="0.27" stroke-linecap="round" d="M 36 128 S 282 -200 564 -400 18 64 36 128 282 -200 564 -400" stroke="#11FF98" stroke-width="1" fill="none"/><path opacity="0.27" stroke-linecap="round" d="M 763 114 S 645.5 -207 1291 -414 381.5 57 763 114 645.5 -207 1291 -414" stroke="#FFFFFF" stroke-width="1" fill="none"/><path opacity="0.27" stroke-linecap="round" d="M 529 182 S 528.5 -173 1057 -346 264.5 91 529 182 0.5 355 1 710" stroke="#FFFFFF" stroke-width="1" fill="none"/><path opacity="0.27" stroke-linecap="round" d="M 513 422 S -7.5 475 -15 950 -271.5 739 -543 1478 -535.5 1003 -1071 2006" stroke="#11FF98" stroke-width="1" fill="none"/><path opacity="0.27" stroke-linecap="round" d="M 371 0 S 449.5 -264 899 -528 713.5 -528 1427 -1056 449.5 -264 899 -528" stroke="#FFFFFF" stroke-width="1" fill="none"/><path opacity="0.27" stroke-linecap="round" d="M 502 113 S 515 -207.5 1030 -415 779 -471.5 1558 -943 1043 -735.5 2086 -1471" stroke="#FFFFFF" stroke-width="1" fill="none"/><path opacity="0.27" stroke-linecap="round" d="M 822 261 S 675 -133.5 1350 -267 939 -397.5 1878 -795 1203 -661.5 2406 -1323" stroke="#11FF98" stroke-width="1" fill="none"/><path opacity="0.27" stroke-linecap="round" d="M 345 115 S -91.5 321.5 -183 643 172.5 57.5 345 115 -91.5 321.5 -183 643" stroke="#FFFFFF" stroke-width="1" fill="none"/><path opacity="0.27" stroke-linecap="round" d="M 106 190 S 317 -169 634 -338 581 -433 1162 -866 845 -697 1690 -1394" stroke="#FFFFFF" stroke-width="1" fill="none"/><path opacity="0.27" stroke-linecap="round" d="M 641 535 S 584.5 3.5 1169 7 320.5 267.5 641 535 56.5 531.5 113 1063" stroke="#11FF98" stroke-width="1" fill="none"/><path opacity="0.27" stroke-linecap="round" d="M 141 6 S -193.5 267 -387 534 -457.5 531 -915 1062 -721.5 795 -1443 1590" stroke="#FFFFFF" stroke-width="1" fill="none"/><path opacity="0.27" stroke-linecap="round" d="M 868 295 S 170 411.5 340 823 -94 675.5 -188 1351 170 411.5 340 823" stroke="#FFFFFF" stroke-width="1" fill="none"/><path opacity="0.27" stroke-linecap="round" d="M 794 293 S 133 410.5 266 821 -131 674.5 -262 1349 133 410.5 266 821" stroke="#11FF98" stroke-width="1" fill="none"/><path opacity="0.27" stroke-linecap="round" d="M 515 359 S 521.5 -84.5 1043 -169 257.5 179.5 515 359 -6.5 443.5 -13 887" stroke="#FFFFFF" stroke-width="1" fill="none"/><path opacity="0.27" stroke-linecap="round" d="M 671 263 S 71.5 395.5 143 791 -192.5 659.5 -385 1319 71.5 395.5 143 791" stroke="#FFFFFF" stroke-width="1" fill="none"/><path opacity="0.27" stroke-linecap="round" d="M 726 438 S 627 -45 1254 -90 891 -309 1782 -618 1155 -573 2310 -1146" stroke="#11FF98" stroke-width="1" fill="none"/><path opacity="0.27" stroke-linecap="round" d="M 218 299 S -155 413.5 -310 827 -419 677.5 -838 1355 -683 941.5 -1366 1883" stroke="#FFFFFF" stroke-width="1" fill="none"/><path opacity="0.27" stroke-linecap="round" d="M 743 363 S 107.5 445.5 215 891 -156.5 709.5 -313 1419 -420.5 973.5 -841 1947" stroke="#FFFFFF" stroke-width="1" fill="none"/><path opacity="0.27" stroke-linecap="round" d="M 614 54 S 571 -237 1142 -474 307 27 614 54 571 -237 1142 -474" stroke="#11FF98" stroke-width="1" fill="none"/><path opacity="0.27" stroke-linecap="round" d="M 123 5 S -202.5 266.5 -405 533 -466.5 530.5 -933 1061 -730.5 794.5 -1461 1589" stroke="#FFFFFF" stroke-width="1" fill="none"/><path opacity="0.27" stroke-linecap="round" d="M 238 398 S 383 -65 766 -130 119 199 238 398 383 -65 766 -130" stroke="#FFFFFF" stroke-width="1" fill="none"/><path opacity="0.27" stroke-linecap="round" d="M 252 156 S 390 -186 780 -372 654 -450 1308 -900 918 -714 1836 -1428" stroke="#11FF98" stroke-width="1" fill="none"/><path opacity="0.27" stroke-linecap="round" d="M 310 2 S 419 -263 838 -526 155 1 310 2 -109 265 -218 530" stroke="#FFFFFF" stroke-width="1" fill="none"/><path opacity="0.27" stroke-linecap="round" d="M 38 511 S 283 -8.5 566 -17 547 -272.5 1094 -545 283 -8.5 566 -17" stroke="#FFFFFF" stroke-width="1" fill="none"/><path opacity="0.27" stroke-linecap="round" d="M 977 314 S 224.5 421 449 842 -39.5 685 -79 1370 -303.5 949 -607 1898" stroke="#11FF98" stroke-width="1" fill="none"/><path opacity="0.27" stroke-linecap="round" d="M 931 160 S 729.5 -184 1459 -368 993.5 -448 1987 -896 729.5 -184 1459 -368" stroke="#FFFFFF" stroke-width="1" fill="none"/><path opacity="0.27" stroke-linecap="round" d="M 907 226 S 189.5 377 379 754 -74.5 641 -149 1282 -338.5 905 -677 1810" stroke="#FFFFFF" stroke-width="1" fill="none"/><path opacity="0.27" stroke-linecap="round" d="M 951 395 S 739.5 -66.5 1479 -133 475.5 197.5 951 395 739.5 -66.5 1479 -133" stroke="#11FF98" stroke-width="1" fill="none"/><path opacity="0.27" stroke-linecap="round" d="M 227 316 S -150.5 422 -301 844 113.5 158 227 316 377.5 -106 755 -212" stroke="#FFFFFF" stroke-width="1" fill="none"/><path opacity="0.27" stroke-linecap="round" d="M 421 219 S -53.5 373.5 -107 747 210.5 109.5 421 219 474.5 -154.5 949 -309" stroke="#FFFFFF" stroke-width="1" fill="none"/><path opacity="0.27" stroke-linecap="round" d="M 256 404 S -136 466 -272 932 -400 730 -800 1460 -136 466 -272 932" stroke="#11FF98" stroke-width="1" fill="none"/><path opacity="0.27" stroke-linecap="round" d="M 527 477 S -0.5 502.5 -1 1005 263.5 238.5 527 477 -0.5 502.5 -1 1005" stroke="#FFFFFF" stroke-width="1" fill="none"/><path opacity="0.27" stroke-linecap="round" d="M 385 339 S -71.5 433.5 -143 867 192.5 169.5 385 339 456.5 -94.5 913 -189" stroke="#FFFFFF" stroke-width="1" fill="none"/><path opacity="0.27" stroke-linecap="round" d="M 169 568 S 348.5 20 697 40 84.5 284 169 568 348.5 20 697 40" stroke="#11FF98" stroke-width="1" fill="none"/><path opacity="0.27" stroke-linecap="round" d="M 169 224 S 348.5 -152 697 -304 84.5 112 169 224 -179.5 376 -359 752" stroke="#FFFFFF" stroke-width="1" fill="none"/><path opacity="0.27" stroke-linecap="round" d="M 628 387 S 578 -70.5 1156 -141 314 193.5 628 387 578 -70.5 1156 -141" stroke="#FFFFFF" stroke-width="1" fill="none"/><path opacity="0.27" stroke-linecap="round" d="M 678 305 S 603 -111.5 1206 -223 339 152.5 678 305 603 -111.5 1206 -223" stroke="#11FF98" stroke-width="1" fill="none"/><path opacity="0.27" stroke-linecap="round" d="M 84 36 S -222 282 -444 564 -486 546 -972 1092 -222 282 -444 564" stroke="#FFFFFF" stroke-width="1" fill="none"/><path opacity="0.27" stroke-linecap="round" d="M 2 509 S 265 -9.5 530 -19 529 -273.5 1058 -547 265 -9.5 530 -19" stroke="#FFFFFF" stroke-width="1" fill="none"/><path opacity="0.27" stroke-linecap="round" d="M 775 167 S 651.5 -180.5 1303 -361 915.5 -444.5 1831 -889 651.5 -180.5 1303 -361" stroke="#11FF98" stroke-width="1" fill="none"/><path opacity="0.27" stroke-linecap="round" d="M 556 74 S 14 301 28 602 278 37 556 74 14 301 28 602" stroke="#FFFFFF" stroke-width="1" fill="none"/><path opacity="0.27" stroke-linecap="round" d="M 948 7 S 738 -260.5 1476 -521 1002 -524.5 2004 -1049 738 -260.5 1476 -521" stroke="#FFFFFF" stroke-width="1" fill="none"/><path opacity="0.27" stroke-linecap="round" d="M 379 160 S -74.5 344 -149 688 -338.5 608 -677 1216 -602.5 872 -1205 1744" stroke="#11FF98" stroke-width="1" fill="none"/><path opacity="0.27" stroke-linecap="round" d="M 10 167 S -259 347.5 -518 695 5 83.5 10 167 269 -180.5 538 -361" stroke="#FFFFFF" stroke-width="1" fill="none"/><path opacity="0.27" stroke-linecap="round" d="M 899 592 S 185.5 560 371 1120 -78.5 824 -157 1648 185.5 560 371 1120" stroke="#FFFFFF" stroke-width="1" fill="none"/><path opacity="0.27" stroke-linecap="round" d="M 357 46 S -85.5 287 -171 574 178.5 23 357 46 442.5 -241 885 -482" stroke="#11FF98" stroke-width="1" fill="none"/><path opacity="0.27" stroke-linecap="round" d="M 44 398 S 286 -65 572 -130 550 -329 1100 -658 814 -593 1628 -1186" stroke="#FFFFFF" stroke-width="1" fill="none"/><path opacity="0.27" stroke-linecap="round" d="M 293 106 S 410.5 -211 821 -422 674.5 -475 1349 -950 410.5 -211 821 -422" stroke="#FFFFFF" stroke-width="1" fill="none"/><path opacity="0.27" stroke-linecap="round" d="M 794 501 S 133 514.5 266 1029 -131 778.5 -262 1557 133 514.5 266 1029" stroke="#11FF98" stroke-width="1" fill="none"/><path opacity="0.27" stroke-linecap="round" d="M 237 288 S 382.5 -120 765 -240 118.5 144 237 288 382.5 -120 765 -240" stroke="#FFFFFF" stroke-width="1" fill="none"/><path opacity="0.27" stroke-linecap="round" d="M 797 119 S 134.5 323.5 269 647 398.5 59.5 797 119 134.5 323.5 269 647" stroke="#FFFFFF" stroke-width="1" fill="none"/><path opacity="0.27" stroke-linecap="round" d="M 131 306 S 329.5 -111 659 -222 65.5 153 131 306 329.5 -111 659 -222" stroke="#11FF98" stroke-width="1" fill="none"/><path opacity="0.27" stroke-linecap="round" d="M 8 31 S -260 279.5 -520 559 -524 543.5 -1048 1087 -788 807.5 -1576 1615" stroke="#FFFFFF" stroke-width="1" fill="none"/><path opacity="0.27" stroke-linecap="round" d="M 580 113 S 554 -207.5 1108 -415 290 56.5 580 113 554 -207.5 1108 -415" stroke="#FFFFFF" stroke-width="1" fill="none"/><path opacity="0.27" stroke-linecap="round" d="M 637 427 S 582.5 -50.5 1165 -101 846.5 -314.5 1693 -629 1110.5 -578.5 2221 -1157" stroke="#11FF98" stroke-width="1" fill="none"/><path opacity="0.27" stroke-linecap="round" d="M 289 404 S -119.5 466 -239 932 144.5 202 289 404 -119.5 466 -239 932" stroke="#FFFFFF" stroke-width="1" fill="none"/><path opacity="0.27" stroke-linecap="round" d="M 745 106 S 636.5 -211 1273 -422 372.5 53 745 106 636.5 -211 1273 -422" stroke="#FFFFFF" stroke-width="1" fill="none"/><path opacity="0.27" stroke-linecap="round" d="M 798 355 S 135 441.5 270 883 399 177.5 798 355 663 -86.5 1326 -173" stroke="#11FF98" stroke-width="1" fill="none"/><path opacity="0.27" stroke-linecap="round" d="M 146 151 S -191 339.5 -382 679 -455 603.5 -910 1207 -719 867.5 -1438 1735" stroke="#FFFFFF" stroke-width="1" fill="none"/><path opacity="0.27" stroke-linecap="round" d="M 108 580 S -210 554 -420 1108 54 290 108 580 318 26 636 52" stroke="#FFFFFF" stroke-width="1" fill="none"/><path opacity="0.27" stroke-linecap="round" d="M 306 76 S 417 -226 834 -452 681 -490 1362 -980 945 -754 1890 -1508" stroke="#11FF98" stroke-width="1" fill="none"/></svg>