<svg class="border shadow-md" viewBox="0 0 1056 594" xmlns="http://www.w3.org/2000/svg" preserveAspectRatio="none" style="width: 1056px; height: 594px;"><rect class="bg" id="bg" x="0" y="0" width="1056" height="594" fill="#201f1f"/><path opacity="0.94" stroke-linecap="round" d="M 74 82 S -227 305 -454 610 37 41 74 82 301 -223 602 -446" stroke="#5CFFB8" stroke-width="1" fill="none"/><path opacity="0.94" stroke-linecap="round" d="M 63 77 S -232.5 302.5 -465 605 -496.5 566.5 -993 1133 -760.5 830.5 -1521 1661" stroke="#FFFFFF" stroke-width="1" fill="none"/><path opacity="0.94" stroke-linecap="round" d="M 337 321 S -95.5 424.5 -191 849 168.5 160.5 337 321 -95.5 424.5 -191 849" stroke="#FFFFFF" stroke-width="1" fill="none"/><path opacity="0.94" stroke-linecap="round" d="M 609 227 S 40.5 377.5 81 755 -223.5 641.5 -447 1283 40.5 377.5 81 755" stroke="#5CFFB8" stroke-width="1" fill="none"/><path opacity="0.94" stroke-linecap="round" d="M 705 322 S 616.5 -103 1233 -206 880.5 -367 1761 -734 616.5 -103 1233 -206" stroke="#FFFFFF" stroke-width="1" fill="none"/><path opacity="0.94" stroke-linecap="round" d="M 347 185 S 437.5 -171.5 875 -343 701.5 -435.5 1403 -871 965.5 -699.5 1931 -1399" stroke="#FFFFFF" stroke-width="1" fill="none"/><path opacity="0.94" stroke-linecap="round" d="M 733 318 S 102.5 423 205 846 -161.5 687 -323 1374 -425.5 951 -851 1902" stroke="#5CFFB8" stroke-width="1" fill="none"/><path opacity="0.94" stroke-linecap="round" d="M 969 159 S 220.5 343.5 441 687 -43.5 607.5 -87 1215 -307.5 871.5 -615 1743" stroke="#FFFFFF" stroke-width="1" fill="none"/><path opacity="0.94" stroke-linecap="round" d="M 23 250 S 275.5 -139 551 -278 539.5 -403 1079 -806 275.5 -139 551 -278" stroke="#FFFFFF" stroke-width="1" fill="none"/><path opacity="0.94" stroke-linecap="round" d="M 540 376 S 6 452 12 904 270 188 540 376 6 452 12 904" stroke="#5CFFB8" stroke-width="1" fill="none"/><path opacity="0.94" stroke-linecap="round" d="M 830 295 S 151 411.5 302 823 415 147.5 830 295 151 411.5 302 823" stroke="#FFFFFF" stroke-width="1" fill="none"/><path opacity="0.94" stroke-linecap="round" d="M 709 560 S 90.5 544 181 1088 354.5 280 709 560 90.5 544 181 1088" stroke="#FFFFFF" stroke-width="1" fill="none"/><path opacity="0.94" stroke-linecap="round" d="M 792 403 S 132 465.5 264 931 -132 729.5 -264 1459 132 465.5 264 931" stroke="#5CFFB8" stroke-width="1" fill="none"/><path opacity="0.94" stroke-linecap="round" d="M 106 57 S 317 -235.5 634 -471 53 28.5 106 57 -211 292.5 -422 585" stroke="#FFFFFF" stroke-width="1" fill="none"/><path opacity="0.94" stroke-linecap="round" d="M 458 125 S -35 326.5 -70 653 229 62.5 458 125 493 -201.5 986 -403" stroke="#FFFFFF" stroke-width="1" fill="none"/><path opacity="0.94" stroke-linecap="round" d="M 789 39 S 658.5 -244.5 1317 -489 394.5 19.5 789 39 130.5 283.5 261 567" stroke="#5CFFB8" stroke-width="1" fill="none"/><path opacity="0.94" stroke-linecap="round" d="M 578 287 S 553 -120.5 1106 -241 817 -384.5 1634 -769 1081 -648.5 2162 -1297" stroke="#FFFFFF" stroke-width="1" fill="none"/><path opacity="0.94" stroke-linecap="round" d="M 94 355 S -217 441.5 -434 883 47 177.5 94 355 311 -86.5 622 -173" stroke="#FFFFFF" stroke-width="1" fill="none"/><path opacity="0.94" stroke-linecap="round" d="M 509 121 S 518.5 -203.5 1037 -407 254.5 60.5 509 121 -9.5 324.5 -19 649" stroke="#5CFFB8" stroke-width="1" fill="none"/><path opacity="0.94" stroke-linecap="round" d="M 528 309 S 528 -109.5 1056 -219 792 -373.5 1584 -747 528 -109.5 1056 -219" stroke="#FFFFFF" stroke-width="1" fill="none"/><path opacity="0.94" stroke-linecap="round" d="M 968 13 S 748 -257.5 1496 -515 1012 -521.5 2024 -1043 748 -257.5 1496 -515" stroke="#FFFFFF" stroke-width="1" fill="none"/><path opacity="0.94" stroke-linecap="round" d="M 811 557 S 669.5 14.5 1339 29 405.5 278.5 811 557 669.5 14.5 1339 29" stroke="#5CFFB8" stroke-width="1" fill="none"/><path opacity="0.94" stroke-linecap="round" d="M 714 339 S 621 -94.5 1242 -189 357 169.5 714 339 93 433.5 186 867" stroke="#FFFFFF" stroke-width="1" fill="none"/><path opacity="0.94" stroke-linecap="round" d="M 619 272 S 45.5 400 91 800 309.5 136 619 272 45.5 400 91 800" stroke="#FFFFFF" stroke-width="1" fill="none"/><path opacity="0.94" stroke-linecap="round" d="M 913 277 S 192.5 402.5 385 805 456.5 138.5 913 277 720.5 -125.5 1441 -251" stroke="#5CFFB8" stroke-width="1" fill="none"/><path opacity="0.94" stroke-linecap="round" d="M 480 398 S 504 -65 1008 -130 240 199 480 398 504 -65 1008 -130" stroke="#FFFFFF" stroke-width="1" fill="none"/><path opacity="0.94" stroke-linecap="round" d="M 476 107 S 502 -210.5 1004 -421 766 -474.5 1532 -949 502 -210.5 1004 -421" stroke="#FFFFFF" stroke-width="1" fill="none"/><path opacity="0.94" stroke-linecap="round" d="M 386 27 S 457 -250.5 914 -501 193 13.5 386 27 457 -250.5 914 -501" stroke="#5CFFB8" stroke-width="1" fill="none"/><path opacity="0.94" stroke-linecap="round" d="M 791 563 S 659.5 17.5 1319 35 395.5 281.5 791 563 659.5 17.5 1319 35" stroke="#FFFFFF" stroke-width="1" fill="none"/><path opacity="0.94" stroke-linecap="round" d="M 727 360 S 99.5 444 199 888 -164.5 708 -329 1416 99.5 444 199 888" stroke="#FFFFFF" stroke-width="1" fill="none"/><path opacity="0.94" stroke-linecap="round" d="M 755 189 S 113.5 358.5 227 717 -150.5 622.5 -301 1245 113.5 358.5 227 717" stroke="#5CFFB8" stroke-width="1" fill="none"/><path opacity="0.94" stroke-linecap="round" d="M 1 377 S -263.5 452.5 -527 905 0.5 188.5 1 377 -263.5 452.5 -527 905" stroke="#FFFFFF" stroke-width="1" fill="none"/><path opacity="0.94" stroke-linecap="round" d="M 484 386 S 506 -71 1012 -142 242 193 484 386 -22 457 -44 914" stroke="#FFFFFF" stroke-width="1" fill="none"/><path opacity="0.94" stroke-linecap="round" d="M 402 566 S -63 547 -126 1094 -327 811 -654 1622 -591 1075 -1182 2150" stroke="#5CFFB8" stroke-width="1" fill="none"/><path opacity="0.94" stroke-linecap="round" d="M 245 450 S 386.5 -39 773 -78 650.5 -303 1301 -606 914.5 -567 1829 -1134" stroke="#FFFFFF" stroke-width="1" fill="none"/></svg>